<?xml version="1.0" encoding="UTF-8" standalone="no"?><svg xmlns="http://www.w3.org/2000/svg" xmlns:xlink="http://www.w3.org/1999/xlink" contentStyleType="text/css" height="219px" preserveAspectRatio="none" style="width:477px;height:219px;background:#FFFFFF;" version="1.1" viewBox="0 0 477 219" width="477px" zoomAndPan="magnify"><defs/><g><!--MD5=[49eac08f47363c88012fade2f4810c45]
class Circulo--><g id="elem_Circulo"><rect codeLine="1" fill="#F1F1F1" height="97.4648" id="Circulo" rx="2.5" ry="2.5" style="stroke:#181818;stroke-width:0.5;" width="463" x="7" y="115"/><ellipse cx="209.75" cy="131" fill="#ADD1B2" rx="11" ry="11" style="stroke:#181818;stroke-width:1.0;"/><path d="M212.2231,137.1431 Q211.6421,137.4419 211.0029,137.5913 Q210.3638,137.7407 209.6582,137.7407 Q207.1514,137.7407 205.8315,136.0889 Q204.5117,134.437 204.5117,131.3159 Q204.5117,128.1865 205.8315,126.5347 Q207.1514,124.8828 209.6582,124.8828 Q210.3638,124.8828 211.0112,125.0322 Q211.6587,125.1816 212.2231,125.4805 L212.2231,128.2031 Q211.5923,127.6221 210.9988,127.3523 Q210.4053,127.0825 209.7744,127.0825 Q208.4297,127.0825 207.7449,128.1492 Q207.0601,129.2158 207.0601,131.3159 Q207.0601,133.4077 207.7449,134.4744 Q208.4297,135.541 209.7744,135.541 Q210.4053,135.541 210.9988,135.2712 Q211.5923,135.0015 212.2231,134.4204 Z " fill="#000000"/><text fill="#000000" font-family="sans-serif" font-size="14" lengthAdjust="spacing" textLength="49" x="230.25" y="136.291">Circulo</text><line style="stroke:#181818;stroke-width:0.5;" x1="8" x2="469" y1="147" y2="147"/><line style="stroke:#181818;stroke-width:0.5;" x1="8" x2="469" y1="155" y2="155"/><ellipse cx="18" cy="168.7441" fill="#84BE84" rx="3" ry="3" style="stroke:#038048;stroke-width:1.0;"/><text fill="#000000" font-family="sans-serif" font-size="14" lengthAdjust="spacing" textLength="437" x="27" y="172.5352">Circulo(paiRef:Objeto, _raio:double, ptoDeslocamento:Ponto4D)</text><ellipse cx="18" cy="185.2324" fill="#84BE84" rx="3" ry="3" style="stroke:#038048;stroke-width:1.0;"/><text fill="#000000" font-family="sans-serif" font-size="14" lengthAdjust="spacing" textLength="296" x="27" y="189.0234">Atualizar(ptoDeslocamento:Ponto4D) : void</text><ellipse cx="18" cy="201.7207" fill="#84BE84" rx="3" ry="3" style="stroke:#038048;stroke-width:1.0;"/><text fill="#000000" font-family="sans-serif" font-size="14" lengthAdjust="spacing" textLength="196" x="27" y="205.5117">«override» ToString() : string</text></g><!--MD5=[3051a6a8f877a755a60c7cfd1e6f410a]
class Objeto--><g id="elem_Objeto"><rect fill="#F1F1F1" height="48" id="Objeto" rx="2.5" ry="2.5" style="stroke:#181818;stroke-width:0.5;" width="78" x="199.5" y="7"/><ellipse cx="214.5" cy="23" fill="#ADD1B2" rx="11" ry="11" style="stroke:#181818;stroke-width:1.0;"/><path d="M216.9731,29.1431 Q216.3921,29.4419 215.7529,29.5913 Q215.1138,29.7407 214.4082,29.7407 Q211.9014,29.7407 210.5815,28.0889 Q209.2617,26.437 209.2617,23.3159 Q209.2617,20.1865 210.5815,18.5347 Q211.9014,16.8828 214.4082,16.8828 Q215.1138,16.8828 215.7612,17.0322 Q216.4087,17.1816 216.9731,17.4805 L216.9731,20.2031 Q216.3423,19.6221 215.7488,19.3523 Q215.1553,19.0825 214.5244,19.0825 Q213.1797,19.0825 212.4949,20.1492 Q211.8101,21.2158 211.8101,23.3159 Q211.8101,25.4077 212.4949,26.4744 Q213.1797,27.541 214.5244,27.541 Q215.1553,27.541 215.7488,27.2712 Q216.3423,27.0015 216.9731,26.4204 Z " fill="#000000"/><text fill="#000000" font-family="sans-serif" font-size="14" lengthAdjust="spacing" textLength="46" x="228.5" y="28.291">Objeto</text><line style="stroke:#181818;stroke-width:0.5;" x1="200.5" x2="276.5" y1="39" y2="39"/><line style="stroke:#181818;stroke-width:0.5;" x1="200.5" x2="276.5" y1="47" y2="47"/></g><!--MD5=[9f74ac208f0e1f79011e02b7e2debd03]
reverse link Objeto to Circulo--><g id="link_Objeto_Circulo"><path codeLine="6" d="M238.5,76.49 C238.5,88.78 238.5,102.17 238.5,114.65 " fill="none" id="Objeto-backto-Circulo" style="stroke:#181818;stroke-width:1.0;"/><polygon fill="none" points="231.5,76.88,238.5,56.88,245.5,76.88,231.5,76.88" style="stroke:#181818;stroke-width:1.0;"/></g><!--MD5=[b2141f1a6749d0fbb99edb8d5d01886f]
@startuml
class Circulo {
    + Circulo(paiRef:Objeto, _raio:double, ptoDeslocamento:Ponto4D)
    + Atualizar(ptoDeslocamento:Ponto4D) : void
    + <<override>> ToString() : string
}
Objeto <|- - Circulo
@enduml

PlantUML version 1.2022.7(Mon Aug 22 14:01:30 BRT 2022)
(GPL source distribution)
Java Runtime: OpenJDK Runtime Environment
JVM: OpenJDK 64-Bit Server VM
Default Encoding: UTF-8
Language: en
Country: BR
--></g></svg>