<?xml version="1.0" encoding="UTF-8" standalone="no"?><svg xmlns="http://www.w3.org/2000/svg" xmlns:xlink="http://www.w3.org/1999/xlink" contentStyleType="text/css" height="387px" preserveAspectRatio="none" style="width:416px;height:387px;background:#FFFFFF;" version="1.1" viewBox="0 0 416 387" width="416px" zoomAndPan="magnify"><defs/><g><!--MD5=[3051a6a8f877a755a60c7cfd1e6f410a]
class Objeto--><g id="elem_Objeto"><rect codeLine="1" fill="#F1F1F1" height="245.8594" id="Objeto" rx="2.5" ry="2.5" style="stroke:#181818;stroke-width:0.5;" width="402" x="7" y="7"/><ellipse cx="180.75" cy="23" fill="#ADD1B2" rx="11" ry="11" style="stroke:#181818;stroke-width:1.0;"/><path d="M183.2231,29.1431 Q182.6421,29.4419 182.0029,29.5913 Q181.3638,29.7407 180.6582,29.7407 Q178.1514,29.7407 176.8315,28.0889 Q175.5117,26.437 175.5117,23.3159 Q175.5117,20.1865 176.8315,18.5347 Q178.1514,16.8828 180.6582,16.8828 Q181.3638,16.8828 182.0112,17.0322 Q182.6587,17.1816 183.2231,17.4805 L183.2231,20.2031 Q182.5923,19.6221 181.9988,19.3523 Q181.4053,19.0825 180.7744,19.0825 Q179.4297,19.0825 178.7449,20.1492 Q178.0601,21.2158 178.0601,23.3159 Q178.0601,25.4077 178.7449,26.4744 Q179.4297,27.541 180.7744,27.541 Q181.4053,27.541 181.9988,27.2712 Q182.5923,27.0015 183.2231,26.4204 Z " fill="#000000"/><text fill="#000000" font-family="sans-serif" font-size="14" lengthAdjust="spacing" textLength="46" x="201.25" y="28.291">Objeto</text><line style="stroke:#181818;stroke-width:0.5;" x1="8" x2="408" y1="39" y2="39"/><ellipse cx="18" cy="52.7441" fill="none" rx="3" ry="3" style="stroke:#038048;stroke-width:1.0;"/><text fill="#000000" font-family="sans-serif" font-size="14" lengthAdjust="spacing" textLength="245" x="27" y="56.5352">PrimitivaTamanho : float «get» «set»</text><line style="stroke:#181818;stroke-width:0.5;" x1="8" x2="408" y1="63.4883" y2="63.4883"/><ellipse cx="18" cy="77.2324" fill="#84BE84" rx="3" ry="3" style="stroke:#038048;stroke-width:1.0;"/><text fill="#000000" font-family="sans-serif" font-size="14" lengthAdjust="spacing" textLength="91" x="27" y="81.0234">Bbox() : BBox</text><ellipse cx="18" cy="93.7207" fill="#84BE84" rx="3" ry="3" style="stroke:#038048;stroke-width:1.0;"/><text fill="#000000" font-family="sans-serif" font-size="14" lengthAdjust="spacing" textLength="376" x="27" y="97.5117">Objeto(paiRef:Objeto, _rotulo:char, objetoFilho:Objeto)</text><ellipse cx="18" cy="110.209" fill="#84BE84" rx="3" ry="3" style="stroke:#038048;stroke-width:1.0;"/><text fill="#000000" font-family="sans-serif" font-size="14" lengthAdjust="spacing" textLength="159" x="27" y="114">ObjetoAtualizar() : void</text><ellipse cx="18" cy="126.6973" fill="#84BE84" rx="3" ry="3" style="stroke:#038048;stroke-width:1.0;"/><text fill="#000000" font-family="sans-serif" font-size="14" lengthAdjust="spacing" textLength="116" x="27" y="130.4883">Desenhar() : void</text><ellipse cx="18" cy="143.1855" fill="#84BE84" rx="3" ry="3" style="stroke:#038048;stroke-width:1.0;"/><text fill="#000000" font-family="sans-serif" font-size="14" lengthAdjust="spacing" textLength="232" x="27" y="146.9766">FilhoAdicionar(filho:Objeto) : void</text><ellipse cx="18" cy="159.6738" fill="#84BE84" rx="3" ry="3" style="stroke:#038048;stroke-width:1.0;"/><text fill="#000000" font-family="sans-serif" font-size="14" lengthAdjust="spacing" textLength="176" x="27" y="163.4648">PontosId(id:int) : Ponto4D</text><ellipse cx="18" cy="176.1621" fill="#84BE84" rx="3" ry="3" style="stroke:#038048;stroke-width:1.0;"/><text fill="#000000" font-family="sans-serif" font-size="14" lengthAdjust="spacing" textLength="250" x="27" y="179.9531">PontosAdicionar(pto:Ponto4D) : void</text><ellipse cx="18" cy="192.6504" fill="#84BE84" rx="3" ry="3" style="stroke:#038048;stroke-width:1.0;"/><text fill="#000000" font-family="sans-serif" font-size="14" lengthAdjust="spacing" textLength="314" x="27" y="196.4414">PontosAlterar(pto:Ponto4D, posicao:int) : void</text><ellipse cx="18" cy="209.1387" fill="#84BE84" rx="3" ry="3" style="stroke:#038048;stroke-width:1.0;"/><text fill="#000000" font-family="sans-serif" font-size="14" lengthAdjust="spacing" textLength="260" x="27" y="212.9297">GrafocenaBusca(_rotulo:char) : Objeto</text><ellipse cx="18" cy="225.627" fill="#84BE84" rx="3" ry="3" style="stroke:#038048;stroke-width:1.0;"/><text fill="#000000" font-family="sans-serif" font-size="14" lengthAdjust="spacing" textLength="243" x="27" y="229.418">GrafocenaImprimir(idt:String) : void</text><ellipse cx="18" cy="242.1152" fill="#84BE84" rx="3" ry="3" style="stroke:#038048;stroke-width:1.0;"/><text fill="#000000" font-family="sans-serif" font-size="14" lengthAdjust="spacing" textLength="120" x="27" y="245.9063">OnUnload() : void</text></g><!--MD5=[38e8fced9e943fac45fdba9ac5db991f]
class PrimitiveType--><g id="elem_PrimitiveType"><rect fill="#F1F1F1" height="48" id="PrimitiveType" rx="2.5" ry="2.5" style="stroke:#181818;stroke-width:0.5;" width="124" x="54" y="332.86"/><ellipse cx="69" cy="348.86" fill="#ADD1B2" rx="11" ry="11" style="stroke:#181818;stroke-width:1.0;"/><path d="M71.4731,355.0031 Q70.8921,355.3019 70.2529,355.4513 Q69.6138,355.6007 68.9082,355.6007 Q66.4014,355.6007 65.0815,353.9489 Q63.7617,352.297 63.7617,349.1759 Q63.7617,346.0465 65.0815,344.3947 Q66.4014,342.7428 68.9082,342.7428 Q69.6138,342.7428 70.2612,342.8922 Q70.9087,343.0416 71.4731,343.3405 L71.4731,346.0631 Q70.8423,345.4821 70.2488,345.2123 Q69.6553,344.9425 69.0244,344.9425 Q67.6797,344.9425 66.9949,346.0092 Q66.3101,347.0758 66.3101,349.1759 Q66.3101,351.2677 66.9949,352.3344 Q67.6797,353.401 69.0244,353.401 Q69.6553,353.401 70.2488,353.1312 Q70.8423,352.8615 71.4731,352.2804 Z " fill="#000000"/><text fill="#000000" font-family="sans-serif" font-size="14" lengthAdjust="spacing" textLength="92" x="83" y="354.151">PrimitiveType</text><line style="stroke:#181818;stroke-width:0.5;" x1="55" x2="177" y1="364.86" y2="364.86"/><line style="stroke:#181818;stroke-width:0.5;" x1="55" x2="177" y1="372.86" y2="372.86"/></g><!--MD5=[03b04ed89c1f7ac76f6e629bfb39a406]
class Shader--><g id="elem_Shader"><rect fill="#F1F1F1" height="48" id="Shader" rx="2.5" ry="2.5" style="stroke:#181818;stroke-width:0.5;" width="80" x="261" y="332.86"/><ellipse cx="276" cy="348.86" fill="#ADD1B2" rx="11" ry="11" style="stroke:#181818;stroke-width:1.0;"/><path d="M278.4731,355.0031 Q277.8921,355.3019 277.2529,355.4513 Q276.6138,355.6007 275.9082,355.6007 Q273.4014,355.6007 272.0815,353.9489 Q270.7617,352.297 270.7617,349.1759 Q270.7617,346.0465 272.0815,344.3947 Q273.4014,342.7428 275.9082,342.7428 Q276.6138,342.7428 277.2612,342.8922 Q277.9087,343.0416 278.4731,343.3405 L278.4731,346.0631 Q277.8423,345.4821 277.2488,345.2123 Q276.6553,344.9425 276.0244,344.9425 Q274.6797,344.9425 273.9949,346.0092 Q273.3101,347.0758 273.3101,349.1759 Q273.3101,351.2677 273.9949,352.3344 Q274.6797,353.401 276.0244,353.401 Q276.6553,353.401 277.2488,353.1312 Q277.8423,352.8615 278.4731,352.2804 Z " fill="#000000"/><text fill="#000000" font-family="sans-serif" font-size="14" lengthAdjust="spacing" textLength="48" x="290" y="354.151">Shader</text><line style="stroke:#181818;stroke-width:0.5;" x1="262" x2="340" y1="364.86" y2="364.86"/><line style="stroke:#181818;stroke-width:0.5;" x1="262" x2="340" y1="372.86" y2="372.86"/></g><!--MD5=[7e8630a5cd5ea67eab064634d547f460]
link Objeto to PrimitiveType--><g id="link_Objeto_PrimitiveType"><path codeLine="15" d="M157.96,253.27 C146.63,280.98 135.63,307.88 127.73,327.18 " fill="none" id="Objeto-to-PrimitiveType" style="stroke:#181818;stroke-width:1.0;"/><polygon fill="#181818" points="125.85,331.77,132.95,324.9444,127.7365,327.1395,125.5413,321.926,125.85,331.77" style="stroke:#181818;stroke-width:1.0;"/><text fill="#000000" font-family="sans-serif" font-size="13" lengthAdjust="spacing" textLength="83" x="139.5619" y="322.0098">PrimitivaTipo</text></g><!--MD5=[bb4a0933f4051d72c0c92a1c7a10fb5f]
link Objeto to Shader--><g id="link_Objeto_Shader"><path codeLine="16" d="M258.58,253.27 C270.04,280.98 281.16,307.88 289.14,327.18 " fill="none" id="Objeto-to-Shader" style="stroke:#181818;stroke-width:1.0;"/><polygon fill="#181818" points="291.04,331.77,291.2967,321.9245,289.1291,327.1496,283.904,324.982,291.04,331.77" style="stroke:#181818;stroke-width:1.0;"/><text fill="#000000" font-family="sans-serif" font-size="13" lengthAdjust="spacing" textLength="84" x="193.1694" y="322.0098">shaderObjeto</text></g><!--MD5=[b1f202d93365c08b97067e9756fc603b]
@startuml
class Objeto {
    + PrimitivaTamanho : float <<get>> <<set>>
    + Bbox() : BBox
    + Objeto(paiRef:Objeto, _rotulo:char, objetoFilho:Objeto)
    + ObjetoAtualizar() : void
    + Desenhar() : void
    + FilhoAdicionar(filho:Objeto) : void
    + PontosId(id:int) : Ponto4D
    + PontosAdicionar(pto:Ponto4D) : void
    + PontosAlterar(pto:Ponto4D, posicao:int) : void
    + GrafocenaBusca(_rotulo:char) : Objeto
    + GrafocenaImprimir(idt:String) : void
    + OnUnload() : void
}
Objeto - -> "PrimitivaTipo" PrimitiveType
Objeto - -> "shaderObjeto" Shader
@enduml

PlantUML version 1.2022.7(Mon Aug 22 14:01:30 BRT 2022)
(GPL source distribution)
Java Runtime: OpenJDK Runtime Environment
JVM: OpenJDK 64-Bit Server VM
Default Encoding: UTF-8
Language: en
Country: BR
--></g></svg>